<svg width="40" height="40" viewBox="0 0 40 40" fill="none" xmlns="http://www.w3.org/2000/svg">
<g clip-path="url(#clip0_253_5155)">
<path d="M24.0237 1.94985C24.8719 2.64405 24.8719 2.64405 25.1855 3.05672C25.4359 3.23559 25.5011 3.20993 25.7989 3.17482C27.2975 3.02489 28.8579 3.01511 30.3125 3.43758C30.3693 3.45391 30.4262 3.47023 30.4848 3.48706C32.068 3.95853 33.4127 4.80727 34.6094 5.93758C34.6959 6.01658 34.6959 6.01658 34.7842 6.09719C36.292 7.5246 37.2425 9.52843 37.5781 11.5626C37.5923 11.6408 37.6065 11.7191 37.6211 11.7997C37.7901 13.2911 37.6651 14.7471 37.2757 16.1897C37.2446 16.4137 37.2446 16.4137 37.3871 16.5989C37.4469 16.6626 37.5067 16.7264 37.5683 16.7921C38.6373 18.0204 39.2401 19.5236 39.6094 21.0938C39.6287 21.1741 39.648 21.2544 39.6679 21.3371C40.1701 23.9141 39.5111 26.6317 38.0957 28.8053C36.647 30.9508 34.4817 32.4605 31.9531 33.047C31.8758 33.047 31.7984 33.047 31.7187 33.047C31.7107 33.0995 31.7026 33.1521 31.6943 33.2063C31.3634 34.6312 30.4253 35.9001 29.4531 36.9532C29.3993 37.0125 29.3455 37.0718 29.2901 37.1329C27.7397 38.7651 25.3371 39.9002 23.0854 40.0139C20.0279 40.0646 17.4816 39.4565 15.1578 37.3429C15 37.1876 15 37.1876 14.8144 36.9434C14.564 36.7646 14.4988 36.7902 14.201 36.8253C12.7024 36.9753 11.142 36.9851 9.68748 36.5626C9.63062 36.5462 9.57375 36.5299 9.51517 36.5131C7.93192 36.0416 6.58729 35.1929 5.3906 34.0626C5.3329 34.0099 5.27519 33.9572 5.21574 33.903C3.86746 32.6265 3.07809 30.9825 2.5781 29.2188C2.53565 29.0705 2.53565 29.0705 2.49235 28.9191C2.10238 27.2468 2.28089 25.4512 2.72428 23.8108C2.75543 23.5865 2.75543 23.5865 2.61289 23.4013C2.55307 23.3375 2.49325 23.2738 2.43162 23.2081C1.36263 21.9797 0.759806 20.4766 0.390602 18.9063C0.371266 18.8261 0.35193 18.7458 0.332009 18.6631C-0.170141 16.0861 0.48884 13.3685 1.90427 11.1948C3.36662 9.02981 5.51691 7.56867 8.04685 6.9532C8.1242 6.9532 8.20154 6.9532 8.28123 6.9532C8.2909 6.89731 8.30056 6.84142 8.31052 6.78383C8.77585 4.67533 10.568 2.67588 12.3356 1.54602C15.9124 -0.648372 20.6406 -0.629969 24.0237 1.94985ZM13.0469 4.4532C12.9893 4.49852 12.9318 4.54384 12.8726 4.59053C11.5694 5.65613 10.7144 7.39196 10.4861 9.04501C10.4475 9.43135 10.4464 9.82005 10.4388 10.208C10.4366 10.3066 10.4345 10.4053 10.4323 10.5069C10.4132 11.4133 10.4022 12.3199 10.3935 13.2265C10.3875 13.835 10.379 14.4433 10.3642 15.0517C10.3513 15.584 10.3431 16.1161 10.3406 16.6486C10.3391 16.9299 10.3353 17.2108 10.3259 17.492C10.2369 18.6128 10.2369 18.6128 10.5969 19.6211C10.9066 19.8889 11.247 20.0407 11.6313 20.1727C11.886 20.2677 12.1012 20.4058 12.3312 20.55C12.49 20.6434 12.6488 20.7368 12.8076 20.8302C12.8897 20.8788 12.9718 20.9274 13.0565 20.9776C13.1736 21.0463 13.1736 21.0463 13.2931 21.1164C13.3624 21.1573 13.4317 21.1981 13.5031 21.2402C13.6632 21.3402 13.6632 21.3402 13.8281 21.3282C13.8282 21.269 13.8283 21.2099 13.8284 21.1489C13.8313 19.7092 13.836 18.2695 13.8425 16.8298C13.8456 16.1336 13.8481 15.4373 13.8493 14.7411C13.8503 14.1342 13.8524 13.5274 13.8558 12.9205C13.8576 12.5992 13.8588 12.2779 13.8587 11.9566C13.8587 11.654 13.8601 11.3515 13.8626 11.049C13.8632 10.9381 13.8634 10.8272 13.8629 10.7162C13.8594 9.67776 13.8594 9.67776 14.2187 9.29695C14.3703 9.16769 14.3703 9.16769 14.5315 9.06716C14.5933 9.02837 14.655 8.98959 14.7186 8.94963C15.0951 8.72466 15.4735 8.50357 15.8545 8.28621C15.9896 8.20868 16.1248 8.13115 16.2599 8.05359C16.3991 7.9737 16.5385 7.89392 16.6778 7.81414C17.1087 7.56729 17.5387 7.31875 17.9687 7.07039C18.4818 6.77421 18.9949 6.47827 19.5086 6.18325C20.5385 5.59133 21.5626 4.9912 22.5781 4.37508C21.5998 3.32185 19.9105 2.72762 18.5009 2.64649C16.4664 2.57948 14.6097 3.10309 13.0469 4.4532ZM22.8906 7.2657C22.7476 7.34893 22.6046 7.43215 22.4615 7.51534C22.2291 7.65073 21.9968 7.78631 21.7647 7.92229C21.1528 8.28064 20.5379 8.63348 19.9219 8.98445C18.6932 9.68478 17.4687 10.3924 16.2549 11.1182C16.2068 11.1469 16.1587 11.1756 16.1092 11.2052C15.894 11.3285 15.894 11.3285 15.7031 11.4845C15.6958 11.6044 15.6939 11.7246 15.6942 11.8447C15.6942 11.9214 15.6942 11.998 15.6943 12.077C15.6947 12.1603 15.6951 12.2436 15.6955 12.3295C15.6956 12.4143 15.6957 12.4992 15.6958 12.5866C15.6962 12.8589 15.6972 13.1311 15.6982 13.4034C15.6986 13.5875 15.699 13.7715 15.6993 13.9556C15.7002 14.4079 15.7015 14.8603 15.7031 15.3126C16.2706 15.0047 16.8355 14.6928 17.3974 14.3751C17.4746 14.3315 17.5518 14.2878 17.6313 14.2429C18.2626 13.885 18.89 13.5206 19.5164 13.1541C20.344 12.6697 21.1748 12.191 22.0057 11.7124C22.3599 11.5082 22.7138 11.3036 23.0677 11.0989C23.3235 10.9511 23.5796 10.8039 23.8357 10.6568C24.1177 10.4947 24.3984 10.3308 24.6774 10.1637C24.7337 10.1305 24.79 10.0974 24.848 10.0632C24.9473 10.0047 25.046 9.94534 25.1441 9.88476C25.5385 9.65501 25.9524 9.54943 26.4042 9.64056C26.872 9.79983 27.2931 10.0746 27.7148 10.3272C27.882 10.4261 28.0492 10.5249 28.2165 10.6236C28.3037 10.6751 28.3909 10.7266 28.4807 10.7796C28.8869 11.0179 29.2961 11.251 29.7055 11.4839C30.4373 11.9003 31.1674 12.3195 31.8945 12.7442C31.9695 12.7879 32.0444 12.8317 32.1216 12.8767C32.5278 13.114 32.9331 13.3527 33.3377 13.5926C33.4669 13.6689 33.4669 13.6689 33.5987 13.7467C33.7646 13.8447 33.9303 13.943 34.0957 14.0419C34.1698 14.0856 34.244 14.1293 34.3204 14.1743C34.3857 14.2131 34.4511 14.252 34.5185 14.292C34.6912 14.3923 34.6912 14.3923 34.9219 14.3751C35.163 12.3122 34.6905 10.2753 33.3935 8.62801C33.2546 8.45773 33.1125 8.29135 32.9687 8.12508C32.9232 8.0716 32.8777 8.01813 32.8308 7.96303C31.6411 6.67422 29.7818 5.88087 28.0485 5.77158C26.0928 5.6979 24.5572 6.28947 22.8906 7.2657ZM5.46873 11.2501C5.39259 11.3191 5.31646 11.388 5.23801 11.4591C3.97747 12.6372 3.06499 14.3378 2.9549 16.0781C2.9059 18.3789 3.35583 20.2768 4.97373 22.0023C5.58083 22.6186 6.20426 23.0847 6.9531 23.5157C7.10153 23.6019 7.24994 23.688 7.39835 23.7742C7.7909 24.0016 8.18403 24.2279 8.57745 24.4538C9.05203 24.7263 9.52601 24.9999 9.99998 25.2735C10.1687 25.3709 10.3375 25.4682 10.5063 25.5656C10.9368 25.8139 11.3672 26.0625 11.7976 26.3111C11.9679 26.4094 12.1384 26.5075 12.309 26.6054C12.7168 26.8396 13.1227 27.076 13.5254 27.3188C13.6005 27.3634 13.6756 27.4081 13.7529 27.4541C13.8937 27.5379 14.0339 27.6227 14.1732 27.7089C14.2355 27.7456 14.2977 27.7824 14.3619 27.8202C14.4156 27.8528 14.4694 27.8855 14.5248 27.9191C14.817 28.0084 15.0282 27.8386 15.2856 27.7044C15.3589 27.6633 15.4323 27.6223 15.5078 27.58C15.5896 27.5343 15.6714 27.4886 15.7556 27.4415C15.8414 27.3932 15.9272 27.3448 16.0156 27.295C16.103 27.2459 16.1903 27.1969 16.2803 27.1463C16.8781 26.8091 17.4688 26.4639 18.0469 26.0938C17.8701 25.9005 17.6912 25.7794 17.4624 25.6528C17.3918 25.6134 17.3212 25.574 17.2484 25.5334C17.1719 25.4912 17.0954 25.4489 17.0166 25.4054C16.8523 25.3136 16.6882 25.2217 16.524 25.1298C16.4396 25.0825 16.3551 25.0351 16.2681 24.9864C15.8739 24.7638 15.4832 24.5356 15.0928 24.3067C14.4413 23.9254 13.7888 23.546 13.1347 23.169C13.0505 23.1205 12.9662 23.0719 12.8794 23.0218C12.6227 22.8739 12.3661 22.7261 12.1094 22.5782C11.938 22.4795 11.7667 22.3809 11.5954 22.2822C11.5108 22.2334 11.4261 22.1847 11.3389 22.1344C11.1701 22.0371 11.0013 21.9395 10.8326 21.8419C10.4047 21.594 9.97577 21.3483 9.54465 21.106C9.37416 21.0092 9.20367 20.9124 9.03318 20.8155C8.95421 20.7718 8.87525 20.7281 8.79388 20.683C8.33988 20.4235 8.00725 20.2187 7.84548 19.6988C7.80741 19.5056 7.80152 19.3259 7.80012 19.1289C7.79935 19.0477 7.79859 18.9664 7.7978 18.8826C7.79712 18.7495 7.79712 18.7495 7.79644 18.6137C7.79566 18.52 7.79489 18.4262 7.79409 18.3296C7.79205 18.0728 7.79034 17.816 7.78878 17.5592C7.78707 17.2907 7.78493 17.0223 7.78284 16.7538C7.77894 16.2455 7.77543 15.7372 7.77206 15.229C7.7682 14.6503 7.76391 14.0716 7.75958 13.4929C7.75069 12.3026 7.74235 11.1123 7.73435 9.92195C7.00567 9.92195 5.97548 10.7822 5.46873 11.2501ZM24.7378 12.263C24.6526 12.3123 24.5673 12.3616 24.4795 12.4125C24.3877 12.4661 24.2959 12.5197 24.2041 12.5733C24.1115 12.6271 24.0189 12.6809 23.9263 12.7346C23.2648 13.119 22.6065 13.5085 21.9531 13.9063C22.2094 14.1192 22.4655 14.2995 22.7548 14.4645C22.8347 14.5103 22.9146 14.5561 22.997 14.6034C23.0827 14.6521 23.1685 14.7008 23.2568 14.7511C23.3476 14.803 23.4384 14.855 23.5292 14.907C23.7176 15.0149 23.9061 15.1227 24.0946 15.2304C24.5275 15.4777 24.959 15.7273 25.3906 15.9766C25.5599 16.0743 25.7291 16.172 25.8984 16.2696C26.237 16.4649 26.5755 16.6602 26.914 16.8555C26.9979 16.9039 27.0817 16.9523 27.1681 17.0021C27.3368 17.0995 27.5055 17.1968 27.6742 17.2941C28.1944 17.5943 28.7148 17.8942 29.2353 18.1939C29.4907 18.3411 29.7458 18.4888 30.0009 18.6366C30.2929 18.8055 30.5859 18.9725 30.8804 19.137C30.9419 19.1719 31.0035 19.2068 31.0669 19.2427C31.1776 19.3054 31.2888 19.3674 31.4006 19.4283C31.7723 19.6408 32.0237 19.8864 32.1555 20.3019C32.1924 20.4948 32.1984 20.6748 32.1998 20.8712C32.201 20.9931 32.201 20.9931 32.2022 21.1175C32.2026 21.2063 32.2031 21.295 32.2035 21.3864C32.2043 21.4802 32.2051 21.574 32.2059 21.6706C32.2079 21.9274 32.2096 22.1841 32.2112 22.4409C32.2129 22.7094 32.215 22.9779 32.2171 23.2464C32.221 23.7547 32.2245 24.2629 32.2279 24.7712C32.2318 25.3499 32.236 25.9286 32.2404 26.5073C32.2493 27.6976 32.2576 28.8879 32.2656 30.0782C33.122 29.8007 33.8634 29.3509 34.5312 28.7501C34.5686 28.7166 34.606 28.683 34.6444 28.6485C36.0386 27.3793 36.9691 25.6001 37.0663 23.7013C37.124 21.5676 36.5803 19.6512 35.092 18.0683C34.9841 17.9561 34.8749 17.8453 34.7656 17.7345C34.7103 17.6782 34.655 17.6219 34.5981 17.5639C33.7742 16.781 32.7053 16.2616 31.7221 15.7104C31.1789 15.4059 30.6397 15.0953 30.1025 14.7804C29.2328 14.2709 28.3584 13.7698 27.4826 13.271C27.1395 13.0755 26.7971 12.879 26.4554 12.6814C26.3791 12.6374 26.3028 12.5934 26.2242 12.548C26.0821 12.466 25.9401 12.3837 25.7983 12.3011C25.736 12.2652 25.6738 12.2294 25.6097 12.1925C25.5557 12.1611 25.5017 12.1298 25.4461 12.0976C25.1596 11.9556 24.995 12.1136 24.7378 12.263ZM19.5108 15.2824C19.4304 15.328 19.3501 15.3736 19.2673 15.4206C19.182 15.4703 19.0967 15.5201 19.0088 15.5714C18.9212 15.6215 18.8336 15.6716 18.7434 15.7232C18.4845 15.8717 18.2265 16.0216 17.9687 16.172C17.9006 16.2116 17.8325 16.2512 17.7624 16.292C17.2874 16.567 17.2874 16.567 16.8186 16.8522C16.6406 16.9532 16.6406 16.9532 16.4081 17.0507C16.1355 17.177 15.9256 17.2971 15.7031 17.5001C15.5735 17.8804 15.5932 18.2509 15.6115 18.6472C15.6133 18.7585 15.6146 18.8699 15.6156 18.9812C15.6191 19.2728 15.6283 19.564 15.6387 19.8554C15.6484 20.1534 15.6526 20.4514 15.6573 20.7494C15.6674 21.3332 15.6833 21.9166 15.7031 22.5001C15.7588 22.5322 15.8144 22.5642 15.8717 22.5973C16.1307 22.7465 16.3896 22.8958 16.6485 23.0451C16.6951 23.072 16.7417 23.0989 16.7897 23.1265C17.3158 23.4299 17.8417 23.7337 18.3661 24.04C18.4498 24.0887 18.5334 24.1375 18.6197 24.1877C18.785 24.2841 18.9502 24.3807 19.1153 24.4776C19.1967 24.525 19.2782 24.5723 19.3622 24.621C19.4327 24.6623 19.5032 24.7035 19.5759 24.746C19.8165 24.8715 19.8165 24.8715 20.0781 24.922C20.2712 24.8495 20.2712 24.8495 20.4699 24.7288C20.5475 24.6847 20.6251 24.6407 20.705 24.5954C20.7882 24.5468 20.8713 24.4983 20.957 24.4483C21.0428 24.3992 21.1286 24.3502 21.2169 24.2996C21.4433 24.1697 21.6691 24.039 21.8946 23.9077C22.1173 23.7781 22.3404 23.6491 22.5635 23.52C23.0119 23.2596 23.4598 22.9984 23.9062 22.7345C23.9736 22.7035 24.041 22.6726 24.1104 22.6408C24.3183 22.5158 24.3183 22.5158 24.3438 22.2821C24.343 22.1938 24.3421 22.1055 24.3412 22.0145C24.3412 21.9144 24.3411 21.8143 24.3411 21.7112C24.3391 21.6019 24.3371 21.4927 24.335 21.3834C24.3343 21.2717 24.3337 21.1599 24.3333 21.0481C24.3318 20.7541 24.328 20.4602 24.3237 20.1662C24.3197 19.8661 24.3179 19.5661 24.3159 19.266C24.3117 18.6773 24.3051 18.0887 24.2969 17.5001C24.2412 17.468 24.1855 17.4359 24.1282 17.4029C23.8693 17.2536 23.6103 17.1043 23.3514 16.955C23.3048 16.9282 23.2582 16.9013 23.2103 16.8736C22.6842 16.5702 22.1583 16.2665 21.6339 15.9602C21.5502 15.9114 21.4665 15.8627 21.3803 15.8125C21.2149 15.7161 21.0497 15.6194 20.8847 15.5225C20.8032 15.4752 20.7217 15.4279 20.6378 15.3791C20.5673 15.3379 20.4967 15.2967 20.4241 15.2542C20.035 15.0535 19.8965 15.0605 19.5108 15.2824ZM26.1719 18.672C26.1717 18.7311 26.1716 18.7903 26.1715 18.8512C26.1686 20.2909 26.164 21.7306 26.1575 23.1704C26.1544 23.8666 26.1518 24.5628 26.1507 25.2591C26.1497 25.8659 26.1476 26.4728 26.1441 27.0797C26.1424 27.401 26.1412 27.7223 26.1412 28.0436C26.1413 28.3461 26.1399 28.6486 26.1374 28.9512C26.1367 29.0621 26.1366 29.173 26.137 29.2839C26.1406 30.3224 26.1406 30.3224 25.7812 30.7032C25.6297 30.8325 25.6297 30.8325 25.4684 30.933C25.4067 30.9718 25.3449 31.0106 25.2813 31.0505C24.9048 31.2755 24.5264 31.4966 24.1455 31.7139C24.0103 31.7915 23.8752 31.869 23.7401 31.9466C23.6008 32.0265 23.4615 32.1062 23.3222 32.186C22.8912 32.4329 22.4613 32.6814 22.0312 32.9298C21.5182 33.2259 21.005 33.5219 20.4913 33.8169C19.4615 34.4088 18.4374 35.009 17.4219 35.6251C18.5378 36.7867 20.2721 37.3303 21.8563 37.3667C23.9519 37.3833 25.7477 36.6915 27.2656 35.2345C27.3349 35.1684 27.4042 35.1023 27.4756 35.0343C27.565 34.94 27.565 34.94 27.6562 34.8438C27.6958 34.8048 27.7354 34.7657 27.7762 34.7254C29.0296 33.412 29.5487 31.5034 29.5851 29.7338C29.5893 29.5863 29.5893 29.5863 29.5936 29.4358C29.6183 28.5377 29.6303 27.6392 29.6395 26.7409C29.6464 26.079 29.6591 25.4178 29.6793 24.7562C29.693 24.2879 29.7002 23.8199 29.7025 23.3514C29.704 23.0727 29.7084 22.7948 29.7201 22.5163C29.8043 21.3683 29.8043 21.3683 29.3675 20.3587C28.9627 20.0325 28.5179 19.8236 28.0387 19.6294C27.6634 19.4667 27.3209 19.2513 26.9726 19.0382C26.8511 18.9666 26.7295 18.8952 26.6076 18.8242C26.5572 18.7947 26.5068 18.7652 26.4548 18.7347C26.3283 18.6604 26.3283 18.6604 26.1719 18.672ZM23.8382 24.9027C23.7573 24.9496 23.6763 24.9964 23.593 25.0446C23.5046 25.096 23.4162 25.1474 23.3252 25.2003C23.233 25.2537 23.1408 25.3071 23.0485 25.3605C22.8566 25.4716 22.6647 25.5828 22.4729 25.6941C22.0396 25.9452 21.6057 26.1953 21.1719 26.4454C21.0026 26.543 20.8333 26.6407 20.664 26.7384C20.3255 26.9337 19.987 27.129 19.6484 27.3243C19.5646 27.3727 19.4808 27.421 19.3944 27.4708C19.2255 27.5683 19.0565 27.6658 18.8876 27.7632C18.3726 28.0603 17.8578 28.3574 17.3431 28.6548C17.1725 28.7533 17.0017 28.8516 16.8309 28.9497C16.4274 29.1815 16.0254 29.4152 15.6262 29.6543C15.5525 29.6979 15.4788 29.7415 15.4029 29.7864C15.2663 29.8673 15.1302 29.9491 14.9948 30.032C14.5446 30.2965 14.1245 30.4675 13.5969 30.3593C13.1251 30.2011 12.7001 29.9221 12.2754 29.668C12.1078 29.569 11.9401 29.47 11.7724 29.3711C11.6862 29.3201 11.6 29.2691 11.5112 29.2165C11.0905 28.9686 10.6673 28.7251 10.2441 28.4815C10.0736 28.3833 9.90313 28.285 9.73264 28.1867C9.56134 28.088 9.39004 27.9894 9.21873 27.8907C8.9619 27.7428 8.70508 27.5948 8.44829 27.4468C8.27963 27.3496 8.11093 27.2525 7.9422 27.1554C7.51047 26.9066 7.08004 26.6559 6.65128 26.4021C6.56504 26.3512 6.4788 26.3003 6.38994 26.2478C6.22517 26.1504 6.06064 26.0526 5.89639 25.9543C5.82304 25.911 5.74969 25.8677 5.67411 25.8231C5.60971 25.7848 5.54532 25.7464 5.47897 25.7069C5.30834 25.6079 5.30834 25.6079 5.0781 25.6251C4.80964 27.6721 5.29731 29.6532 6.55271 31.3038C7.82176 32.9201 9.50478 33.8449 11.5182 34.1862C14.3021 34.5124 16.4903 33.1373 18.7921 31.7686C19.2299 31.5088 19.6712 31.2552 20.1123 31.0011C20.1981 30.9516 20.2838 30.9021 20.3722 30.8512C20.7753 30.6189 21.1785 30.3868 21.5819 30.1552C23.0134 29.4414 23.0134 29.4414 24.2969 28.5157C24.3041 28.3958 24.306 28.2756 24.3057 28.1554C24.3057 28.0788 24.3057 28.0022 24.3057 27.9232C24.3053 27.8399 24.3049 27.7565 24.3045 27.6707C24.3044 27.5858 24.3043 27.501 24.3041 27.4135C24.3037 27.1413 24.3027 26.869 24.3017 26.5968C24.3013 26.4127 24.301 26.2286 24.3007 26.0445C24.2998 25.5922 24.2985 25.1399 24.2969 24.6876C24.1353 24.6876 23.972 24.8251 23.8382 24.9027Z" fill="#1C1C1F"/>
</g>
<defs>
<clipPath id="clip0_253_5155">
<rect width="40" height="40" fill="white"/>
</clipPath>
</defs>
</svg>
